<svg width="42" height="60" viewBox="0 0 42 60" fill="none" xmlns="http://www.w3.org/2000/svg">
<path d="M30 21C32.3869 21 34.6761 21.9482 36.364 23.636C38.0518 25.3239 39 27.613 39 30C39 32.3869 38.0518 34.6761 36.364 36.364C34.6761 38.0518 32.3869 39 30 39C27.6131 39 25.3239 38.0518 23.636 36.364C21.9482 34.6761 21 32.3869 21 30C21 27.613 21.9482 25.3239 23.636 23.636C25.3239 21.9482 27.6131 21 30 21ZM30 21C32.3869 21 34.6761 20.0518 36.364 18.364C38.0518 16.6761 39 14.3869 39 12C39 9.61305 38.0518 7.32387 36.364 5.63604C34.6761 3.94821 32.3869 3 30 3H12C9.61305 3 7.32387 3.94821 5.63604 5.63604C3.94821 7.32387 3 9.61305 3 12C3 14.3869 3.94821 16.6761 5.63604 18.364C7.32387 20.0518 9.61305 21 12 21M30 21H12M12 21C9.61305 21 7.32387 21.9482 5.63604 23.636C3.94822 25.3239 3 27.613 3 30C3 32.3869 3.94822 34.6761 5.63604 36.364C7.32387 38.0518 9.61306 39 12 39M12 39H21M12 39C10.22 39 8.47991 39.5278 6.99987 40.5168C5.51983 41.5057 4.36628 42.9113 3.68509 44.5558C3.0039 46.2004 2.82567 48.01 3.17294 49.7558C3.5202 51.5016 4.37737 53.1053 5.63604 54.364C6.89472 55.6226 8.49836 56.4798 10.2442 56.8271C11.99 57.1743 13.7996 56.9961 15.4442 56.3149C17.0887 55.6337 18.4943 54.4802 19.4832 53.0001C20.4722 51.5201 21 49.78 21 48V3" stroke="black" stroke-width="5" stroke-linecap="round" stroke-linejoin="round"/>
</svg>
