<svg width="47" height="56" viewBox="0 0 47 56" fill="none" xmlns="http://www.w3.org/2000/svg">
<path d="M31.1875 3V14.1111C31.1875 14.8478 31.4575 15.5544 31.938 16.0753C32.4186 16.5962 33.0704 16.8889 33.75 16.8889H44M31.1875 3H13.25C11.8908 3 10.5872 3.58532 9.62608 4.62718C8.66495 5.66905 8.125 7.08213 8.125 8.55556V28M31.1875 3L44 16.8889M44 16.8889V47.4444C44 48.9179 43.46 50.3309 42.4989 51.3728C41.5378 52.4147 40.2342 53 38.875 53H36.3125M3 36.3333H10.6875V48.8333C10.6875 49.9384 10.2825 50.9982 9.56169 51.7796C8.84085 52.561 7.86318 53 6.84375 53C5.82432 53 4.84665 52.561 4.12581 51.7796C3.40497 50.9982 3 49.9384 3 48.8333M18.375 50.9167C18.375 52.0667 19.236 53 20.2969 53H23.5C24.1796 53 24.8314 52.7073 25.312 52.1864C25.7925 51.6655 26.0625 50.9589 26.0625 50.2222V47.4444C26.0625 46.7077 25.7925 46.0012 25.312 45.4803C24.8314 44.9593 24.1796 44.6667 23.5 44.6667H20.9375C20.2579 44.6667 19.6061 44.374 19.1255 43.8531C18.645 43.3321 18.375 42.6256 18.375 41.8889V39.1111C18.375 38.3744 18.645 37.6679 19.1255 37.1469C19.6061 36.626 20.2579 36.3333 20.9375 36.3333H24.1406C24.6503 36.3333 25.1392 36.5528 25.4996 36.9435C25.86 37.3342 26.0625 37.8641 26.0625 38.4167" stroke="black" stroke-width="5" stroke-linecap="round" stroke-linejoin="round"/>
</svg>
