<svg width="30" height="31" viewBox="0 0 30 31" fill="none" xmlns="http://www.w3.org/2000/svg">
<path d="M22.3125 7.90625V7.92313M2 8.75C2 6.95979 2.68482 5.2429 3.90381 3.97703C5.12279 2.71116 6.77609 2 8.5 2H21.5C23.2239 2 24.8772 2.71116 26.0962 3.97703C27.3152 5.2429 28 6.95979 28 8.75V22.25C28 24.0402 27.3152 25.7571 26.0962 27.023C24.8772 28.2888 23.2239 29 21.5 29H8.5C6.77609 29 5.12279 28.2888 3.90381 27.023C2.68482 25.7571 2 24.0402 2 22.25V8.75ZM10.125 15.5C10.125 16.8427 10.6386 18.1303 11.5529 19.0797C12.4671 20.0291 13.7071 20.5625 15 20.5625C16.2929 20.5625 17.5329 20.0291 18.4471 19.0797C19.3614 18.1303 19.875 16.8427 19.875 15.5C19.875 14.1573 19.3614 12.8697 18.4471 11.9203C17.5329 10.9709 16.2929 10.4375 15 10.4375C13.7071 10.4375 12.4671 10.9709 11.5529 11.9203C10.6386 12.8697 10.125 14.1573 10.125 15.5Z" stroke="black" stroke-width="3" stroke-linecap="round" stroke-linejoin="round"/>
</svg>
