<svg width="31" height="26" viewBox="0 0 31 26" fill="none" xmlns="http://www.w3.org/2000/svg">
<path d="M2 6.71429L13.835 14.98C14.328 15.3246 14.9074 15.5085 15.5 15.5085C16.0926 15.5085 16.672 15.3246 17.165 14.98L29 6.71429M5 24H26C26.7956 24 27.5587 23.6689 28.1213 23.0795C28.6839 22.4901 29 21.6907 29 20.8571V5.14286C29 4.30932 28.6839 3.50992 28.1213 2.92052C27.5587 2.33112 26.7956 2 26 2H5C4.20435 2 3.44129 2.33112 2.87868 2.92052C2.31607 3.50992 2 4.30932 2 5.14286V20.8571C2 21.6907 2.31607 22.4901 2.87868 23.0795C3.44129 23.6689 4.20435 24 5 24Z" fill="#D9D9D9"/>
<path d="M2 6.71429L13.835 14.98C14.328 15.3246 14.9074 15.5085 15.5 15.5085C16.0926 15.5085 16.672 15.3246 17.165 14.98L29 6.71429M5 24H26C26.7956 24 27.5587 23.6689 28.1213 23.0795C28.6839 22.4901 29 21.6907 29 20.8571V5.14286C29 4.30932 28.6839 3.50992 28.1213 2.92052C27.5587 2.33112 26.7956 2 26 2H5C4.20435 2 3.44129 2.33112 2.87868 2.92052C2.31607 3.50992 2 4.30932 2 5.14286V20.8571C2 21.6907 2.31607 22.4901 2.87868 23.0795C3.44129 23.6689 4.20435 24 5 24Z" stroke="black" stroke-width="3" stroke-linecap="round" stroke-linejoin="round"/>
</svg>
