<svg width="19" height="29" viewBox="0 0 19 29" fill="none" xmlns="http://www.w3.org/2000/svg">
<path d="M17.5385 0C17.8964 4.68503e-05 18.242 0.130436 18.5095 0.366437C18.777 0.602438 18.9479 0.927636 18.9898 1.28035L19 1.45V7.25C19 7.60515 18.8685 7.94794 18.6306 8.21334C18.3928 8.47874 18.065 8.6483 17.7095 8.68985L17.5385 8.7H13.1538V10.15H17.5385C17.7465 10.1501 17.9522 10.1942 18.1416 10.2795C18.3311 10.3648 18.5 10.4892 18.6372 10.6444C18.7743 10.7997 18.8764 10.9822 18.9367 11.1797C18.997 11.3773 19.0141 11.5853 18.9868 11.7899L18.9576 11.9524L17.4961 17.7523C17.4235 18.0387 17.2646 18.2963 17.0405 18.4907C16.8164 18.685 16.5378 18.8068 16.2421 18.8399L16.0769 18.85H13.1538V27.55C13.1538 27.9052 13.0224 28.2479 12.7845 28.5133C12.5466 28.7787 12.2188 28.9483 11.8633 28.9899L11.6923 29H5.84615C5.48817 29 5.14266 28.8696 4.87515 28.6336C4.60764 28.3976 4.43673 28.0724 4.39485 27.7197L4.38462 27.55V18.85H1.46154C1.10356 18.85 0.758046 18.7196 0.490533 18.4836C0.223021 18.2476 0.0521143 17.9224 0.0102307 17.5697L0 17.4V11.6C4.72231e-05 11.2448 0.131474 10.9021 0.369353 10.6367C0.607232 10.3713 0.935017 10.2017 1.29054 10.1602L1.46154 10.15H4.38462V8.7C4.38453 6.44905 5.26383 4.28568 6.83776 2.66442C8.41169 1.04315 10.5577 0.0902106 12.825 0.00579993L13.1538 0H17.5385Z" fill="#3C3C3C"/>
</svg>
