<svg width="30" height="25" viewBox="0 0 30 25" fill="none" xmlns="http://www.w3.org/2000/svg">
<path d="M23.1818 0C24.0772 0 24.9638 0.179623 25.791 0.528614C26.6182 0.877605 27.3699 1.38913 28.003 2.03398C28.6361 2.67883 29.1384 3.44438 29.481 4.28692C29.8236 5.12946 30 6.03249 30 6.94444V18.0556C30 18.9675 29.8236 19.8705 29.481 20.7131C29.1384 21.5556 28.6361 22.3212 28.003 22.966C27.3699 23.6109 26.6182 24.1224 25.791 24.4714C24.9638 24.8204 24.0772 25 23.1818 25H6.81818C5.92281 25 5.0362 24.8204 4.20898 24.4714C3.38176 24.1224 2.63013 23.6109 1.997 22.966C0.718342 21.6637 0 19.8973 0 18.0556V6.94444C0 5.10266 0.718342 3.33632 1.997 2.03398C3.27566 0.731645 5.00989 0 6.81818 0H23.1818ZM10.9091 8.33333V16.6667C10.9093 16.9123 10.9734 17.1535 11.095 17.3656C11.2165 17.5777 11.3911 17.7533 11.601 17.8743C11.8109 17.9952 12.0485 18.0574 12.2896 18.0544C12.5307 18.0513 12.7668 17.9832 12.9736 17.8569L19.7918 13.6903C19.9934 13.5668 20.1603 13.3923 20.2761 13.1837C20.3919 12.9752 20.4528 12.7396 20.4528 12.5C20.4528 12.2604 20.3919 12.0248 20.2761 11.8163C20.1603 11.6077 19.9934 11.4332 19.7918 11.3097L12.9736 7.14305C12.7668 7.01681 12.5307 6.94869 12.2896 6.94565C12.0485 6.94261 11.8109 7.00475 11.601 7.12575C11.3911 7.24674 11.2165 7.42226 11.095 7.6344C10.9734 7.84654 10.9093 8.08771 10.9091 8.33333Z" fill="black"/>
</svg>
