<svg width="82" height="82" viewBox="0 0 82 82" fill="none" xmlns="http://www.w3.org/2000/svg">
<path d="M61.5008 5.49356C67.6847 9.06406 72.829 14.1877 76.4242 20.3573C80.0194 26.5269 81.941 33.5284 81.9987 40.6688C82.0563 47.8093 80.2481 54.841 76.753 61.0678C73.2579 67.2946 68.1971 72.5007 62.0717 76.1707C55.9462 79.8406 48.9684 81.8471 41.8291 81.9916C34.6898 82.1361 27.6366 80.4135 21.3676 76.9944C15.0987 73.5753 9.83139 68.5783 6.08721 62.498C2.34302 56.4176 0.251781 49.4649 0.0205007 42.3279L0 40.9995L0.0205007 39.6711C0.250116 32.5904 2.31057 25.69 6.001 19.6426C9.69142 13.5953 14.8859 8.60731 21.0779 5.16508C27.27 1.72284 34.2483 -0.0562142 41.3326 0.00135401C48.4169 0.0589222 55.3655 1.95115 61.5008 5.49356ZM53.3007 24.5996H28.7004L28.2206 24.6283C27.2233 24.7457 26.3038 25.2252 25.6364 25.9756C24.9691 26.7261 24.6004 27.6953 24.6003 28.6996L24.629 29.1793C24.7465 30.1766 25.2259 31.0961 25.9764 31.7634C26.7268 32.4307 27.6961 32.7994 28.7004 32.7996H43.3949L25.8016 50.4008L25.4613 50.7862C24.8241 51.6103 24.5245 52.646 24.6233 53.683C24.7221 54.72 25.2119 55.6805 25.9932 56.3694C26.7745 57.0584 27.7888 57.4241 28.83 57.3923C29.8712 57.3605 30.8613 56.9336 31.5991 56.1982L49.2006 38.5969V53.2995L49.2293 53.7792C49.3527 54.8169 49.8677 55.7683 50.6691 56.4391C51.4705 57.1098 52.4977 57.4492 53.5409 57.388C54.5842 57.3267 55.5646 56.8694 56.282 56.1096C56.9994 55.3497 57.3995 54.3446 57.4007 53.2995V28.6996L57.372 28.2199L57.2531 27.609L57.1096 27.1785L56.8882 26.7152L56.5971 26.2601C56.4759 26.0975 56.343 25.944 56.1994 25.8009L55.8304 25.4729L55.4368 25.1982L55.035 24.985L54.584 24.8046L54.1248 24.6816L53.6082 24.6119L53.3007 24.5996Z" fill="black"/>
</svg>
