<svg width="65" height="82" viewBox="0 0 65 82" fill="none" xmlns="http://www.w3.org/2000/svg">
<path d="M19.8571 11.4444H11.4286C9.19318 11.4444 7.04933 12.3341 5.46867 13.9178C3.88801 15.5014 3 17.6493 3 19.8889V70.5556C3 72.7952 3.88801 74.943 5.46867 76.5267C7.04933 78.1103 9.19318 79 11.4286 79H53.5714C55.8068 79 57.9507 78.1103 59.5313 76.5267C61.112 74.943 62 72.7952 62 70.5556V19.8889C62 17.6493 61.112 15.5014 59.5313 13.9178C57.9507 12.3341 55.8068 11.4444 53.5714 11.4444H45.1429M19.8571 11.4444C19.8571 13.6841 20.7452 15.8319 22.3258 17.4156C23.9065 18.9992 26.0503 19.8889 28.2857 19.8889H36.7143C38.9497 19.8889 41.0935 18.9992 42.6742 17.4156C44.2548 15.8319 45.1429 13.6841 45.1429 11.4444M19.8571 11.4444C19.8571 9.20484 20.7452 7.05696 22.3258 5.47332C23.9065 3.88968 26.0503 3 28.2857 3H36.7143C38.9497 3 41.0935 3.88968 42.6742 5.47332C44.2548 7.05696 45.1429 9.20484 45.1429 11.4444M32.5 41H45.1429M32.5 57.8889H45.1429M19.8571 41H19.8993M19.8571 57.8889H19.8993" stroke="#005200" stroke-width="6" stroke-linecap="round" stroke-linejoin="round"/>
</svg>
