<svg width="97" height="97" viewBox="0 0 97 97" fill="none" xmlns="http://www.w3.org/2000/svg">
<path d="M3 22.4369V12.7184C3 10.141 4.07045 7.66903 5.97585 5.84647C7.88126 4.0239 10.4655 3 13.1602 3H23.3204M73.6796 3H83.8398C86.5345 3 89.1187 4.0239 91.0241 5.84647C92.9296 7.66903 94 10.141 94 12.7184V22.4369M94 72.7961V82.9563C94 85.651 92.9296 88.2352 91.0241 90.1407C89.1187 92.0461 86.5345 93.1165 83.8398 93.1165H73.6796M23.3204 93.1165H13.1602C10.4655 93.1165 7.88126 92.0461 5.97585 90.1407C4.07045 88.2352 3 85.651 3 82.9563V72.7961M63.1111 63.6667H25M57.6667 47.3334H25M68 31H25" stroke="#5D2505" stroke-width="6" stroke-linecap="round" stroke-linejoin="round"/>
</svg>
