<svg width="107" height="107" viewBox="0 0 107 107" fill="none" xmlns="http://www.w3.org/2000/svg">
<path d="M40.3868 81.5556H66.6076M53.5 3V8.61111M89.2091 17.7909L85.2421 21.7579M104 53.5H98.3889M8.61111 53.5H3M21.7579 21.7579L17.7909 17.7909M33.6591 73.3409C29.7362 69.417 27.0649 64.4179 25.983 58.9759C24.9011 53.5338 25.4571 47.8932 27.5808 42.7671C29.7044 37.6411 33.3004 33.2598 37.9139 30.1774C42.5275 27.0949 47.9515 25.4497 53.5 25.4497C59.0486 25.4497 64.4725 27.0949 69.0861 30.1774C73.6996 33.2598 77.2956 37.6411 79.4193 42.7671C81.5429 47.8932 82.0989 53.5338 81.017 58.9759C79.9351 64.4179 77.2638 69.417 73.3409 73.3409L70.266 76.4102C68.5081 78.1684 67.1137 80.2557 66.1625 82.5528C65.2113 84.85 64.7219 87.312 64.7222 89.7983V92.7778C64.7222 95.7541 63.5399 98.6085 61.4353 100.713C59.3307 102.818 56.4763 104 53.5 104C50.5237 104 47.6693 102.818 45.5647 100.713C43.4601 98.6085 42.2778 95.7541 42.2778 92.7778V89.7983C42.2778 84.7763 40.2802 79.9564 36.734 76.4102L33.6591 73.3409Z" stroke="#55045B" stroke-width="6" stroke-linecap="round" stroke-linejoin="round"/>
</svg>
