<svg width="263" height="247" viewBox="0 0 263 247" fill="none" xmlns="http://www.w3.org/2000/svg">
<path d="M200.588 215.375C208.732 215.375 216.542 218.602 222.301 224.345C228.059 230.088 231.294 237.878 231.294 246C231.294 237.878 234.529 230.088 240.288 224.345C246.046 218.602 253.856 215.375 262 215.375C253.856 215.375 246.046 212.148 240.288 206.405C234.529 200.662 231.294 192.872 231.294 184.75C231.294 192.872 228.059 200.662 222.301 206.405C216.542 212.148 208.732 215.375 200.588 215.375ZM200.588 31.625C208.732 31.625 216.542 34.8516 222.301 40.5949C228.059 46.3382 231.294 54.1277 231.294 62.25C231.294 54.1277 234.529 46.3382 240.288 40.5949C246.046 34.8516 253.856 31.625 262 31.625C253.856 31.625 246.046 28.3984 240.288 22.6551C234.529 16.9118 231.294 9.12226 231.294 1C231.294 9.12226 228.059 16.9118 222.301 22.6551C216.542 28.3984 208.732 31.625 200.588 31.625ZM93.1176 215.375C93.1176 191.008 102.823 167.639 120.098 150.41C137.374 133.18 160.804 123.5 185.235 123.5C160.804 123.5 137.374 113.82 120.098 96.5904C102.823 79.3605 93.1176 55.9918 93.1176 31.625C93.1176 55.9918 83.4124 79.3605 66.137 96.5904C48.8616 113.82 25.4311 123.5 1 123.5C25.4311 123.5 48.8616 133.18 66.137 150.41C83.4124 167.639 93.1176 191.008 93.1176 215.375Z" stroke="black" stroke-width="0.6" stroke-linecap="round" stroke-linejoin="round"/>
</svg>
