<svg width="365" height="181" viewBox="0 0 365 181" fill="none" xmlns="http://www.w3.org/2000/svg">
<path d="M246.849 111.034L240.17 124.875M357.484 179.878L210.334 110.887L217.016 97.1284L364.156 165.716L357.484 179.878ZM215 81.75C217.055 81.75 219.027 82.5665 220.48 84.0199C221.933 85.4733 222.75 87.4446 222.75 89.5C222.75 87.4446 223.567 85.4733 225.02 84.0199C226.473 82.5665 228.445 81.75 230.5 81.75C228.445 81.75 226.473 80.9335 225.02 79.4801C223.567 78.0267 222.75 76.0554 222.75 74C222.75 76.0554 221.933 78.0267 220.48 79.4801C219.027 80.9335 217.055 81.75 215 81.75ZM218 131.75C220.055 131.75 222.027 132.567 223.48 134.02C224.933 135.473 225.75 137.445 225.75 139.5C225.75 137.445 226.567 135.473 228.02 134.02C229.473 132.567 231.445 131.75 233.5 131.75C231.445 131.75 229.473 130.933 228.02 129.48C226.567 128.027 225.75 126.055 225.75 124C225.75 126.055 224.933 128.027 223.48 129.48C222.027 130.933 220.055 131.75 218 131.75ZM134 97C137.978 97 141.794 98.5804 144.607 101.393C147.42 104.206 149 108.022 149 112C149 108.022 150.58 104.206 153.393 101.393C156.206 98.5804 160.022 97 164 97C160.022 97 156.206 95.4196 153.393 92.6066C150.58 89.7936 149 85.9782 149 82C149 85.9782 147.42 89.7936 144.607 92.6066C141.794 95.4196 137.978 97 134 97ZM117 24.5C123.233 24.5 129.21 26.9759 133.617 31.383C138.024 35.7901 140.5 41.7674 140.5 48C140.5 41.7674 142.976 35.7901 147.383 31.383C151.79 26.9759 157.767 24.5 164 24.5C157.767 24.5 151.79 22.0241 147.383 17.617C142.976 13.2099 140.5 7.23259 140.5 1C140.5 7.23259 138.024 13.2099 133.617 17.617C129.21 22.0241 123.233 24.5 117 24.5ZM1 64C13.7304 64 25.9394 69.0571 34.9411 78.0589C43.9429 87.0606 49 99.2696 49 112C49 99.2696 54.0571 87.0606 63.0589 78.0589C72.0606 69.0571 84.2696 64 97 64C84.2696 64 72.0606 58.9429 63.0589 49.9411C54.0571 40.9394 49 28.7304 49 16C49 28.7304 43.9429 40.9394 34.9411 49.9411C25.9394 58.9429 13.7304 64 1 64Z" stroke="black" stroke-width="0.4" stroke-linecap="round" stroke-linejoin="round"/>
</svg>
